<svg width="70" height="70" viewBox="0 0 70 70" fill="none" xmlns="http://www.w3.org/2000/svg">
<path fill-rule="evenodd" clip-rule="evenodd" d="M53.6674 28.3833C53.6674 38.6927 45.3099 47.05 35.0005 47.05C24.691 47.05 16.3335 38.6927 16.3335 28.3833C16.3335 18.074 24.691 9.71667 35.0005 9.71667C45.3099 9.71667 53.6674 18.074 53.6674 28.3833ZM44.334 28.3833C44.334 33.538 40.1552 37.7167 35.0005 37.7167C29.8457 37.7167 25.667 33.538 25.667 28.3833C25.667 23.2287 29.8457 19.05 35.0005 19.05C40.1552 19.05 44.334 23.2287 44.334 28.3833ZM49.0007 60.6666C51.5781 60.6666 53.6674 58.5773 53.6674 56C53.6674 53.4226 51.5781 51.3333 49.0007 51.3333C46.4233 51.3333 44.334 53.4226 44.334 56C44.334 58.5773 46.4233 60.6666 49.0007 60.6666Z" fill="black" fill-opacity="0.9"/>
<mask id="mask0_2_5349" style="mask-type:alpha" maskUnits="userSpaceOnUse" x="44" y="28" width="10" height="29">
<path d="M49.0007 51.3411C46.4234 51.3411 44.334 53.4305 44.334 56.0078V44.5527C50.07 41.2214 53.6675 35.0893 53.6675 28.3834V56.0078C53.6675 53.4305 51.5781 51.3411 49.0007 51.3411Z" fill="#D9D9D9"/>
</mask>
<g mask="url(#mask0_2_5349)">
</g>
</svg>
